<?xml version="1.0" encoding="UTF-8" standalone="no"?>
<svg
   xmlns:dc="http://purl.org/dc/elements/1.1/"
   xmlns:cc="http://creativecommons.org/ns#"
   xmlns:rdf="http://www.w3.org/1999/02/22-rdf-syntax-ns#"
   xmlns:svg="http://www.w3.org/2000/svg"
   xmlns="http://www.w3.org/2000/svg"
   xmlns:sodipodi="http://sodipodi.sourceforge.net/DTD/sodipodi-0.dtd"
   xmlns:inkscape="http://www.inkscape.org/namespaces/inkscape"
   id="regular"
   enable-background="new 0 0 24 24"
   height="25"
   viewBox="0 0 24 24"
   width="25"
   version="1.1"
   sodipodi:docname="telegram_t.svg"
   inkscape:version="0.92.5 (2060ec1f9f, 2020-04-08)">
  <metadata
     id="metadata9">
    <rdf:RDF>
      <cc:Work
         rdf:about="">
        <dc:format>image/svg+xml</dc:format>
        <dc:type
           rdf:resource="http://purl.org/dc/dcmitype/StillImage" />
        <dc:title></dc:title>
      </cc:Work>
    </rdf:RDF>
  </metadata>
  <defs
     id="defs7" />
  <sodipodi:namedview
     pagecolor="#ffffff"
     bordercolor="#666666"
     borderopacity="1"
     objecttolerance="10"
     gridtolerance="10"
     guidetolerance="10"
     inkscape:pageopacity="0"
     inkscape:pageshadow="2"
     inkscape:window-width="660"
     inkscape:window-height="480"
     id="namedview5"
     showgrid="false"
     inkscape:zoom="0.4609375"
     inkscape:cx="256"
     inkscape:cy="256"
     inkscape:window-x="72"
     inkscape:window-y="0"
     inkscape:window-maximized="0"
     inkscape:current-layer="regular" />
  <path
     d="m 11.697772,23.084177 2.925,-5.869 c 0.112,-0.227 0.104,-0.495 -0.023,-0.712 l -3.037,-5.224 2.802,3.162 c 0.143,0.161 0.347,0.253 0.562,0.253 h 6.825 c 0.72,0 1.023,-0.919 0.451,-1.35 l -3.373,-2.537 3.573,-6.2739999 c 0.253,-0.44 -10e-4,-1.004 -0.504,-1.106 L 2.3987722,-0.48582288 c -0.586,-0.117 -1.064,0.466 -0.846,1.008 L 10.327772,23.022177 c 0.236,0.604 1.081,0.643 1.37,0.062 z M 3.4487722,1.2541771 l 17.1369998,3.439 -3.386,5.9449999 c -0.185,0.324 -0.103,0.741 0.201,0.971 l 2.107,1.585 h -4.244 L 7.6877722,4.6431771 c -0.599,-0.677 -1.664,0.101 -1.21,0.874 l 6.6219998,11.3899999 -1.989,3.992 z"
     id="path2"
     inkscape:connector-curvature="0" />
</svg>
